<?xml version="1.0" standalone="no"?>
<!DOCTYPE svg PUBLIC "-//W3C//DTD SVG 20010904//EN"
 "http://www.w3.org/TR/2001/REC-SVG-20010904/DTD/svg10.dtd">
<svg version="1.0" xmlns="http://www.w3.org/2000/svg"
 width="752.000000pt" height="752.000000pt" viewBox="0 0 752.000000 752.000000"
 preserveAspectRatio="xMidYMid meet">

<g transform="translate(0.000000,752.000000) scale(0.100000,-0.100000)"
fill="#000000" stroke="none">
<path d="M2190 5941 c-180 -42 -314 -132 -412 -275 -255 -371 -112 -860 301
-1036 39 -17 79 -30 90 -30 20 0 21 -5 21 -140 l0 -140 -480 0 -480 0 0 -145
0 -145 480 0 480 0 0 -402 0 -403 -539 -850 c-296 -467 -537 -853 -535 -856
10 -18 237 -150 245 -142 5 5 225 350 489 768 265 418 485 760 490 760 5 0
225 -342 490 -760 264 -418 485 -764 490 -769 5 -5 54 19 125 64 63 40 117 75
119 79 2 3 -239 389 -535 856 l-539 850 0 403 0 402 480 0 480 0 0 145 0 145
-480 0 -480 0 0 139 0 138 36 6 c19 3 73 24 120 47 139 67 267 202 327 346 95
225 70 464 -71 670 -154 227 -442 338 -712 275z"/>
<path d="M5320 5921 c-180 -42 -314 -132 -412 -275 -255 -371 -112 -860 301
-1036 39 -17 79 -30 90 -30 20 0 21 -5 21 -140 l0 -140 -480 0 -480 0 0 -145
0 -145 480 0 480 0 0 -402 0 -403 -539 -850 c-296 -467 -537 -853 -535 -856
10 -18 237 -150 245 -142 5 5 225 350 489 768 265 418 485 760 490 760 5 0
225 -342 490 -760 264 -418 485 -764 490 -769 5 -5 54 19 125 64 63 40 117 75
119 79 2 3 -239 389 -535 856 l-539 850 0 403 0 402 480 0 480 0 0 145 0 145
-480 0 -480 0 0 139 0 138 36 6 c19 3 73 24 120 47 139 67 267 202 327 346 95
225 70 464 -71 670 -154 227 -442 338 -712 275z"/>
</g>
</svg>
