<svg version="1.0" xmlns="http://www.w3.org/2000/svg"
 width="752.000000pt" height="752.000000pt" viewBox="0 0 752.000000 752.000000"
 preserveAspectRatio="xMidYMid meet">

<g transform="translate(0.000000,752.000000) scale(0.100000,-0.100000)"
fill="#000000" stroke="none">
<path d="M2294 4615 c0 -77 2 -107 3 -67 2 40 2 103 0 140 -2 37 -3 4 -3 -73z"/>
<path d="M2584 4615 c0 -77 2 -107 3 -67 2 40 2 103 0 140 -2 37 -3 4 -3 -73z"/>
<path d="M4754 4615 c0 -77 2 -107 3 -67 2 40 2 103 0 140 -2 37 -3 4 -3 -73z"/>
<path d="M5044 4615 c0 -77 2 -107 3 -67 2 40 2 103 0 140 -2 37 -3 4 -3 -73z"/>
<path d="M2295 3790 c0 -223 1 -314 2 -202 2 111 2 293 0 405 -1 111 -2 20 -2
-203z"/>
<path d="M2585 3790 c0 -223 1 -314 2 -202 2 111 2 293 0 405 -1 111 -2 20 -2
-203z"/>
<path d="M4755 3790 c0 -223 1 -314 2 -202 2 111 2 293 0 405 -1 111 -2 20 -2
-203z"/>
<path d="M5045 3790 c0 -223 1 -314 2 -202 2 111 2 293 0 405 -1 111 -2 20 -2
-203z"/>
</g>
</svg>
