<svg version="1.1" id="Layer_1" xmlns="http://www.w3.org/2000/svg" x="0px" y="0px"
	 width="100%" viewBox="0 0 752 752" enable-background="new 0 0 752 752" xml:space="preserve">
<path fill="#000000" opacity="1.000000" stroke="none" 
	d="
M481.000000,753.000000 
	C320.666656,753.000000 160.833328,753.000000 1.000000,753.000000 
	C1.000000,502.333344 1.000000,251.666672 1.000000,1.000000 
	C251.666672,1.000000 502.333344,1.000000 753.000000,1.000000 
	C753.000000,251.666672 753.000000,502.333344 753.000000,753.000000 
	C662.500000,753.000000 572.000000,753.000000 481.000000,753.000000 
M486.733643,141.000000 
	C484.658234,141.333344 482.578583,141.642303 480.508087,142.003830 
	C462.230988,145.195251 446.801331,153.399826 435.914154,168.688049 
	C419.359711,191.934418 416.995667,216.869995 430.002045,242.278076 
	C439.278229,260.399170 454.364868,272.210907 474.485779,277.084747 
	C475.460724,277.320923 476.862427,278.675232 476.880768,279.534180 
	C477.060913,287.959290 476.989441,296.389801 476.989441,305.203552 
	C444.330750,305.203552 412.258759,305.203552 380.304443,305.203552 
	C380.304443,315.011169 380.304443,324.417694 380.304443,334.213623 
	C412.679382,334.213623 444.751373,334.213623 477.000000,334.213623 
	C477.000000,354.425995 476.612366,374.251068 477.143982,394.051453 
	C477.467865,406.114685 475.437347,416.450562 468.331909,427.021790 
	C448.416656,456.651123 430.028076,487.305054 410.964417,517.508850 
	C396.813293,539.929443 382.548462,562.278259 368.180237,584.901672 
	C376.249359,590.074890 384.209930,595.178467 392.307678,600.370056 
	C392.968323,599.591064 393.465912,599.127563 393.817535,598.571655 
	C406.548279,578.444153 419.284912,558.320251 431.978363,538.169189 
	C442.438141,521.564148 452.831268,504.917175 463.278748,488.304382 
	C471.244904,475.637268 479.256897,462.999023 487.234131,450.338867 
	C490.062958,445.849457 491.897003,445.790009 494.661743,450.235565 
	C498.141327,455.830658 501.501740,461.500458 505.017487,467.072418 
	C520.991211,492.388397 537.017822,517.671021 552.991516,542.986938 
	C561.059082,555.772705 568.999756,568.638733 577.106201,581.399719 
	C581.141357,587.751831 585.420593,593.948853 589.623474,600.267212 
	C597.269836,595.582336 604.563110,591.188110 611.759338,586.640198 
	C613.151550,585.760315 613.963806,585.002197 612.419739,582.607605 
	C597.075989,558.811646 582.101013,534.778198 566.979309,510.838684 
	C548.672241,481.856384 530.542664,452.757782 511.844238,424.029816 
	C507.007202,416.598297 504.574249,409.390686 504.819916,400.447021 
	C505.387054,379.797699 504.995300,359.122192 505.010193,338.457306 
	C505.011230,337.025055 505.157715,335.592957 505.257080,333.787415 
	C537.678345,333.787415 569.750366,333.787415 601.691040,333.787415 
	C601.691040,323.979797 601.691040,314.573120 601.691040,304.777344 
	C569.311523,304.777344 537.239502,304.777344 505.000000,304.777344 
	C505.000000,298.062866 505.272552,291.730103 504.913910,285.433350 
	C504.626282,280.383667 505.276642,277.439575 511.299377,275.977295 
	C523.915710,272.914246 534.096069,265.339569 542.760620,255.743225 
	C553.327637,244.039703 558.642639,230.069931 559.924255,214.582001 
	C560.836670,203.556015 558.408386,193.098267 554.152405,182.780518 
	C548.033997,167.947601 537.728027,156.849319 524.176147,149.324463 
	C513.119446,143.185104 500.639099,140.291245 486.733643,141.000000 
M247.016327,448.170624 
	C247.637329,448.938934 248.343735,449.653442 248.866898,450.483429 
	C264.138611,474.712952 279.413666,498.940369 294.640625,523.197998 
	C304.473969,538.863037 314.162292,554.619507 324.049805,570.250122 
	C330.406860,580.299622 337.007446,590.195068 343.660065,600.406982 
	C351.949921,595.138062 359.932953,590.064148 367.735413,585.105042 
	C348.575928,554.586670 329.758179,524.424377 310.745239,494.385651 
	C294.815186,469.217529 278.576843,444.244263 262.703186,419.041046 
	C260.747925,415.936615 259.209747,411.959198 259.160889,408.363464 
	C258.846252,385.201172 259.000000,362.032501 259.000000,338.865936 
	C259.000000,337.281342 259.000000,335.696716 259.000000,333.719727 
	C291.745636,333.719727 323.819550,333.719727 355.654968,333.719727 
	C355.654968,323.907471 355.654968,314.498413 355.654968,304.702423 
	C323.236877,304.702423 291.162994,304.702423 259.000061,304.702423 
	C259.000061,296.640076 258.886932,288.975372 259.099884,281.319733 
	C259.140228,279.868652 260.122467,277.699921 261.276215,277.161835 
	C264.866974,275.487152 268.796112,274.558746 272.509705,273.122803 
	C287.781891,267.217560 299.033478,256.408752 306.124146,242.113983 
	C315.486359,223.239777 316.016327,203.576416 308.354126,183.597748 
	C302.524017,168.396179 292.181610,157.021118 278.486145,149.511841 
	C264.685059,141.944641 249.242661,138.559036 233.333359,142.138443 
	C225.875275,143.816422 218.051041,145.670670 211.554016,149.444366 
	C197.664413,157.511917 187.240433,169.040237 181.113007,184.365860 
	C172.477310,205.965027 174.482513,226.736603 186.200684,246.200333 
	C195.820236,262.178253 210.071533,272.896881 228.696838,277.129120 
	C229.651337,277.346039 230.873047,279.158051 230.898148,280.252045 
	C231.084457,288.369171 230.999130,296.492554 230.999130,305.008423 
	C198.528473,305.008423 166.454559,305.008423 134.209091,305.008423 
	C134.209091,314.814972 134.209091,324.220062 134.209091,334.025696 
	C166.488953,334.025696 198.562866,334.025696 230.690353,334.025696 
	C230.836182,334.870209 230.986282,335.334381 230.986511,335.798615 
	C230.998978,360.798523 231.018631,385.798462 230.945419,410.798157 
	C230.941498,412.142242 230.403671,413.644409 229.681503,414.803223 
	C214.707657,438.830811 199.776184,462.885956 184.621292,486.799347 
	C163.902069,519.492798 143.003464,552.072632 122.088615,584.847107 
	C130.248245,590.074341 138.216156,595.178772 146.301712,600.358521 
	C146.980453,599.565735 147.482697,599.105835 147.833878,598.550354 
	C160.560425,578.419250 173.262604,558.272705 185.991165,538.142822 
	C193.906113,525.625549 201.870712,513.139648 209.790222,500.625214 
	C220.631653,483.493408 231.405167,466.318115 242.385818,449.276184 
	C243.110535,448.151428 245.344284,447.999023 247.016327,448.170624 
z"/>
<path fill="#FFFFFF" opacity="1.000000" stroke="none" 
	d="
M487.205444,141.000000 
	C500.639099,140.291245 513.119446,143.185104 524.176147,149.324463 
	C537.728027,156.849319 548.033997,167.947601 554.152405,182.780518 
	C558.408386,193.098267 560.836670,203.556015 559.924255,214.582001 
	C558.642639,230.069931 553.327637,244.039703 542.760620,255.743225 
	C534.096069,265.339569 523.915710,272.914246 511.299377,275.977295 
	C505.276642,277.439575 504.626282,280.383667 504.913910,285.433350 
	C505.272552,291.730103 505.000000,298.062866 505.000000,304.777344 
	C537.239502,304.777344 569.311523,304.777344 601.691040,304.777344 
	C601.691040,314.573120 601.691040,323.979797 601.691040,333.787415 
	C569.750366,333.787415 537.678345,333.787415 505.257080,333.787415 
	C505.157715,335.592957 505.011230,337.025055 505.010193,338.457306 
	C504.995300,359.122192 505.387054,379.797699 504.819916,400.447021 
	C504.574249,409.390686 507.007202,416.598297 511.844238,424.029816 
	C530.542664,452.757782 548.672241,481.856384 566.979309,510.838684 
	C582.101013,534.778198 597.075989,558.811646 612.419739,582.607605 
	C613.963806,585.002197 613.151550,585.760315 611.759338,586.640198 
	C604.563110,591.188110 597.269836,595.582336 589.623474,600.267212 
	C585.420593,593.948853 581.141357,587.751831 577.106201,581.399719 
	C568.999756,568.638733 561.059082,555.772705 552.991516,542.986938 
	C537.017822,517.671021 520.991211,492.388397 505.017487,467.072418 
	C501.501740,461.500458 498.141327,455.830658 494.661743,450.235565 
	C491.897003,445.790009 490.062958,445.849457 487.234131,450.338867 
	C479.256897,462.999023 471.244904,475.637268 463.278748,488.304382 
	C452.831268,504.917175 442.438141,521.564148 431.978363,538.169189 
	C419.284912,558.320251 406.548279,578.444153 393.817535,598.571655 
	C393.465912,599.127563 392.968323,599.591064 392.307678,600.370056 
	C384.209930,595.178467 376.249359,590.074890 368.180237,584.901672 
	C382.548462,562.278259 396.813293,539.929443 410.964417,517.508850 
	C430.028076,487.305054 448.416656,456.651123 468.331909,427.021790 
	C475.437347,416.450562 477.467865,406.114685 477.143982,394.051453 
	C476.612366,374.251068 477.000000,354.425995 477.000000,334.213623 
	C444.751373,334.213623 412.679382,334.213623 380.304443,334.213623 
	C380.304443,324.417694 380.304443,315.011169 380.304443,305.203552 
	C412.258759,305.203552 444.330750,305.203552 476.989441,305.203552 
	C476.989441,296.389801 477.060913,287.959290 476.880768,279.534180 
	C476.862427,278.675232 475.460724,277.320923 474.485779,277.084747 
	C454.364868,272.210907 439.278229,260.399170 430.002045,242.278076 
	C416.995667,216.869995 419.359711,191.934418 435.914154,168.688049 
	C446.801331,153.399826 462.230988,145.195251 480.508087,142.003830 
	C482.578583,141.642303 484.658234,141.333344 487.205444,141.000000 
z"/>
<path fill="#FFFFFF" opacity="1.000000" stroke="none" 
	d="
M246.946228,447.782501 
	C245.344284,447.999023 243.110535,448.151428 242.385818,449.276184 
	C231.405167,466.318115 220.631653,483.493408 209.790222,500.625214 
	C201.870712,513.139648 193.906113,525.625549 185.991165,538.142822 
	C173.262604,558.272705 160.560425,578.419250 147.833878,598.550354 
	C147.482697,599.105835 146.980453,599.565735 146.301712,600.358521 
	C138.216156,595.178772 130.248245,590.074341 122.088615,584.847107 
	C143.003464,552.072632 163.902069,519.492798 184.621292,486.799347 
	C199.776184,462.885956 214.707657,438.830811 229.681503,414.803223 
	C230.403671,413.644409 230.941498,412.142242 230.945419,410.798157 
	C231.018631,385.798462 230.998978,360.798523 230.986511,335.798615 
	C230.986282,335.334381 230.836182,334.870209 230.690353,334.025696 
	C198.562866,334.025696 166.488953,334.025696 134.209091,334.025696 
	C134.209091,324.220062 134.209091,314.814972 134.209091,305.008423 
	C166.454559,305.008423 198.528473,305.008423 230.999130,305.008423 
	C230.999130,296.492554 231.084457,288.369171 230.898148,280.252045 
	C230.873047,279.158051 229.651337,277.346039 228.696838,277.129120 
	C210.071533,272.896881 195.820236,262.178253 186.200684,246.200333 
	C174.482513,226.736603 172.477310,205.965027 181.113007,184.365860 
	C187.240433,169.040237 197.664413,157.511917 211.554016,149.444366 
	C218.051041,145.670670 225.875275,143.816422 233.333359,142.138443 
	C249.242661,138.559036 264.685059,141.944641 278.486145,149.511841 
	C292.181610,157.021118 302.524017,168.396179 308.354126,183.597748 
	C316.016327,203.576416 315.486359,223.239777 306.124146,242.113983 
	C299.033478,256.408752 287.781891,267.217560 272.509705,273.122803 
	C268.796112,274.558746 264.866974,275.487152 261.276215,277.161835 
	C260.122467,277.699921 259.140228,279.868652 259.099884,281.319733 
	C258.886932,288.975372 259.000061,296.640076 259.000061,304.702423 
	C291.162994,304.702423 323.236877,304.702423 355.654968,304.702423 
	C355.654968,314.498413 355.654968,323.907471 355.654968,333.719727 
	C323.819550,333.719727 291.745636,333.719727 259.000000,333.719727 
	C259.000000,335.696716 259.000000,337.281342 259.000000,338.865936 
	C259.000000,362.032501 258.846252,385.201172 259.160889,408.363464 
	C259.209747,411.959198 260.747925,415.936615 262.703186,419.041046 
	C278.576843,444.244263 294.815186,469.217529 310.745239,494.385651 
	C329.758179,524.424377 348.575928,554.586670 367.735413,585.105042 
	C359.932953,590.064148 351.949921,595.138062 343.660065,600.406982 
	C337.007446,590.195068 330.406860,580.299622 324.049805,570.250122 
	C314.162292,554.619507 304.473969,538.863037 294.640625,523.197998 
	C279.413666,498.940369 264.138611,474.712952 248.866898,450.483429 
	C248.343735,449.653442 247.637329,448.938934 246.946228,447.782501 
z"/>
</svg>